<svg width="128" height="26" viewBox="0 0 128 26" fill="none" xmlns="http://www.w3.org/2000/svg">
<path d="M0 25.2585V12.6292C0 11.061 0.45777 9.83316 1.37331 8.9456C2.28885 8.05804 3.5554 7.61426 5.17298 7.61426H9.56702V11.0058H5.92748C5.68165 10.9925 5.43565 11.0287 5.20492 11.112C4.97419 11.1953 4.76373 11.3239 4.58674 11.4899C4.42149 11.6678 4.29401 11.8756 4.21158 12.1013C4.12916 12.3271 4.0934 12.5663 4.10636 12.8054V25.2585H0Z" fill="#29D9B9"/>
<path d="M20.3558 25.68C18.6177 25.7101 16.9032 25.2866 15.3918 24.4539C13.9399 23.6471 12.7369 22.4786 11.9075 21.0695C11.0782 19.6603 10.6525 18.0618 10.6748 16.4396C10.651 14.817 11.0754 13.2177 11.9038 11.8076C12.7323 10.3975 13.9347 9.22791 15.3864 8.41997C16.8999 7.58824 18.6163 7.16655 20.3558 7.19913C22.1022 7.16549 23.826 7.58711 25.3469 8.41997C26.7983 9.22649 28.0008 10.3946 28.8297 11.8034C29.6586 13.2121 30.0838 14.8101 30.0612 16.4317C30.0858 18.0551 29.6615 19.6553 28.8325 21.066C28.0035 22.4767 26.7999 23.6466 25.3469 24.4539C23.8265 25.2886 22.1027 25.7121 20.3558 25.68ZM20.3558 22.2885C21.3726 22.3208 22.3768 22.0639 23.2449 21.5497C24.1129 21.0354 24.8068 20.2862 25.2411 19.3943C25.7019 18.4723 25.9343 17.4588 25.9196 16.4343C25.933 15.4126 25.7007 14.4018 25.2411 13.4822C24.8071 12.5901 24.1133 11.8407 23.2452 11.3264C22.3771 10.8121 21.3726 10.5554 20.3558 10.588C19.3268 10.5668 18.3145 10.8415 17.4463 11.3773C16.623 11.9011 15.958 12.6275 15.5194 13.4822C15.0435 14.4054 14.8042 15.4261 14.8218 16.458C14.8079 17.4844 15.0471 18.4993 15.5194 19.418C15.9555 20.2744 16.621 21.0014 17.4463 21.5229C18.3166 22.0516 19.3292 22.3181 20.3558 22.2885Z" fill="#29D9B9"/>
<path d="M33.2363 25.2587V0H37.3427V25.2587H33.2363Z" fill="#29D9B9"/>
<path d="M41.5547 25.2587V0H45.661V25.2587H41.5547Z" fill="#29D9B9"/>
<path d="M51.9083 5.15741C51.5617 5.16029 51.2181 5.09431 50.8989 4.96353C50.5796 4.83275 50.2913 4.63995 50.0519 4.39702C49.8009 4.16501 49.6016 3.88564 49.4662 3.57613C49.3309 3.26662 49.2623 2.93351 49.2648 2.59734C49.2612 2.25984 49.3292 1.92523 49.4646 1.61429C49.6 1.30334 49.7999 1.02269 50.0519 0.789769C50.2976 0.543033 50.5931 0.347962 50.9199 0.216693C51.2468 0.0854251 51.598 0.0207686 51.9517 0.026747C52.2945 0.0241975 52.6341 0.0907029 52.949 0.222049C53.2639 0.353395 53.5472 0.546719 53.781 0.789769C54.0288 1.0249 54.2249 1.30631 54.3574 1.61699C54.4899 1.92768 54.556 2.26118 54.5518 2.59734C54.5547 2.93335 54.4867 3.26638 54.3518 3.5759C54.2169 3.88542 54.018 4.16487 53.7674 4.39702C53.5276 4.64028 53.2389 4.83327 52.9191 4.96405C52.5994 5.09484 52.2553 5.16065 51.9083 5.15741ZM49.8727 25.2591V7.61487H53.9791V25.2591H49.8727Z" fill="#29D9B9"/>
<path d="M58.1918 25.2591V15.0899C58.1651 13.6663 58.5345 12.2621 59.2611 11.0248C59.9811 9.83146 61.0337 8.85929 62.2981 8.22003C63.7312 7.54819 65.3025 7.19922 66.8944 7.19922C68.4863 7.19922 70.0575 7.54819 71.4906 8.22003C72.7463 8.86341 73.7909 9.83508 74.5059 11.0248C75.2381 12.2606 75.6132 13.6649 75.5915 15.0899V25.2591H71.5205V15.1241C71.5281 14.334 71.3211 13.5559 70.9203 12.868C70.5195 12.18 69.9389 11.6065 69.237 11.2049C68.5351 10.8034 67.7366 10.588 66.9216 10.5804C66.1066 10.5728 65.304 10.7732 64.5942 11.1616C63.8999 11.5335 63.3209 12.0785 62.9169 12.7403C62.4898 13.4596 62.2739 14.2785 62.2927 15.1083V25.2591H58.1918Z" fill="#29D9B9"/>
<path d="M124.8 7.125V20.37C124.754 20.9658 124.478 21.5228 124.026 21.9293C123.574 22.3358 122.981 22.5616 122.364 22.5616C121.748 22.5616 121.154 22.3358 120.703 21.9293C120.251 21.5228 119.974 20.9658 119.928 20.37V12.6293C119.928 11.1799 119.335 9.78993 118.277 8.76507C117.22 7.74022 115.786 7.16447 114.291 7.16447C112.796 7.16447 111.363 7.74022 110.305 8.76507C109.248 9.78993 108.654 11.1799 108.654 12.6293V20.3358C108.682 20.662 108.639 20.9901 108.529 21.2996C108.42 21.609 108.245 21.893 108.016 22.1337C107.787 22.3743 107.51 22.5664 107.2 22.6978C106.891 22.8292 106.557 22.897 106.22 22.897C105.882 22.897 105.548 22.8292 105.239 22.6978C104.93 22.5664 104.652 22.3743 104.424 22.1337C104.195 21.893 104.02 21.609 103.91 21.2996C103.8 20.9901 103.758 20.662 103.785 20.3358V12.6293C103.783 11.1797 103.188 9.79007 102.13 8.76552C101.072 7.74097 99.6381 7.16516 98.1428 7.16447L88.5866 7.2013H88.5622C88.4645 7.2013 88.3668 7.2013 88.2663 7.2013C86.0917 7.20584 83.9844 7.93361 82.2966 9.26306C80.6088 10.5925 79.4427 12.4431 78.993 14.5058C78.5432 16.5684 78.8372 18.7182 79.8257 20.5961C80.8142 22.4739 82.4374 23.9661 84.4242 24.8234C86.411 25.6806 88.641 25.851 90.7418 25.3062C92.8426 24.7613 94.687 23.5341 95.9668 21.8297C97.2466 20.1252 97.8844 18.0466 97.7736 15.9411C97.6629 13.8356 96.8102 11.8307 95.3582 10.2613H98.1482C98.796 10.2613 99.4173 10.5108 99.8754 10.9549C100.334 11.3989 100.591 12.0012 100.591 12.6293V20.3358C100.591 21.7852 101.185 23.1752 102.242 24.2C103.299 25.2249 104.733 25.8006 106.228 25.8006C107.723 25.8006 109.157 25.2249 110.214 24.2C111.271 23.1752 111.865 21.7852 111.865 20.3358V12.6293C111.837 12.3031 111.88 11.975 111.99 11.6655C112.1 11.3561 112.274 11.0721 112.503 10.8314C112.732 10.5908 113.01 10.3987 113.319 10.2673C113.628 10.1359 113.962 10.0681 114.3 10.0681C114.637 10.0681 114.971 10.1359 115.28 10.2673C115.589 10.3987 115.867 10.5908 116.096 10.8314C116.325 11.0721 116.499 11.3561 116.609 11.6655C116.719 11.975 116.762 12.3031 116.734 12.6293V20.37C116.734 21.8194 117.328 23.2094 118.385 24.2342C119.442 25.2591 120.876 25.8348 122.371 25.8348C123.866 25.8348 125.3 25.2591 126.357 24.2342C127.414 23.2094 128.008 21.8194 128.008 20.37V7.125C128.052 7.125 124.795 7.12763 124.8 7.125ZM88.2663 20.0964C87.51 20.0964 86.7707 19.8789 86.1418 19.4716C85.5129 19.0642 85.0228 18.4852 84.7333 17.8078C84.4439 17.1304 84.3682 16.385 84.5157 15.6659C84.6633 14.9468 85.0275 14.2862 85.5623 13.7677C86.0971 13.2493 86.7785 12.8962 87.5203 12.7531C88.2621 12.6101 89.031 12.6835 89.7298 12.9641C90.4285 13.2447 91.0258 13.7199 91.446 14.3295C91.8662 14.9392 92.0904 15.6559 92.0904 16.3891C92.0908 16.8761 91.9921 17.3583 91.8001 17.8082C91.608 18.2582 91.3264 18.667 90.9712 19.0113C90.616 19.3556 90.1943 19.6287 89.7302 19.8149C89.2661 20.0011 88.7686 20.0967 88.2663 20.0964Z" fill="black"/>
</svg>
